<svg xmlns="http://www.w3.org/2000/svg" xmlns:xlink="http://www.w3.org/1999/xlink" width="261" zoomAndPan="magnify" viewBox="0 0 1500 374.999991" height="66" preserveAspectRatio="xMidYMid meet" version="1.0"><defs><g/></defs><g fill="#0a6ff1" fill-opacity="1"><g transform="translate(0.0117367, 338.249978)"><g><path d="M 35.625 0 L 35.625 -161.265625 L 22.3125 -164.015625 C 17.75 -165.054688 14.0625 -166.6875 11.25 -168.90625 C 8.445312 -171.125 7.046875 -174.382812 7.046875 -178.6875 L 7.046875 -202.5625 L 35.625 -202.5625 L 35.625 -214.109375 C 35.625 -225.722656 37.484375 -236.226562 41.203125 -245.625 C 44.921875 -255.019531 50.269531 -263.046875 57.25 -269.703125 C 64.226562 -276.359375 72.738281 -281.507812 82.78125 -285.15625 C 92.832031 -288.8125 104.253906 -290.640625 117.046875 -290.640625 C 122.003906 -290.640625 126.566406 -290.34375 130.734375 -289.75 C 134.910156 -289.164062 139.285156 -288.222656 143.859375 -286.921875 L 142.671875 -257.375 C 142.546875 -255.28125 142.023438 -253.546875 141.109375 -252.171875 C 140.203125 -250.804688 138.992188 -249.695312 137.484375 -248.84375 C 135.984375 -248 134.382812 -247.378906 132.6875 -246.984375 C 131 -246.597656 129.304688 -246.40625 127.609375 -246.40625 C 122.253906 -246.40625 117.488281 -245.882812 113.3125 -244.84375 C 109.144531 -243.800781 105.65625 -241.941406 102.84375 -239.265625 C 100.039062 -236.585938 97.921875 -233.0625 96.484375 -228.6875 C 95.054688 -224.320312 94.34375 -218.8125 94.34375 -212.15625 L 94.34375 -202.5625 L 141.890625 -202.5625 L 141.890625 -161.078125 L 96.296875 -161.078125 L 96.296875 0 Z M 35.625 0 "/></g></g></g><g fill="#0a6ff1" fill-opacity="1"><g transform="translate(143.27627, 338.249978)"><g><path d="M 77.3125 -171.640625 C 83.570312 -182.597656 90.78125 -191.207031 98.9375 -197.46875 C 107.09375 -203.738281 116.453125 -206.875 127.015625 -206.875 C 136.148438 -206.875 143.585938 -204.722656 149.328125 -200.421875 L 145.421875 -155.796875 C 144.765625 -152.921875 143.6875 -150.960938 142.1875 -149.921875 C 140.6875 -148.878906 138.632812 -148.359375 136.03125 -148.359375 C 134.976562 -148.359375 133.601562 -148.421875 131.90625 -148.546875 C 130.21875 -148.679688 128.457031 -148.84375 126.625 -149.03125 C 124.800781 -149.226562 122.941406 -149.425781 121.046875 -149.625 C 119.160156 -149.820312 117.429688 -149.921875 115.859375 -149.921875 C 106.992188 -149.921875 99.914062 -147.570312 94.625 -142.875 C 89.34375 -138.175781 84.875 -131.648438 81.21875 -123.296875 L 81.21875 0 L 20.546875 0 L 20.546875 -202.953125 L 56.5625 -202.953125 C 59.5625 -202.953125 62.070312 -202.691406 64.09375 -202.171875 C 66.113281 -201.648438 67.804688 -200.832031 69.171875 -199.71875 C 70.546875 -198.613281 71.59375 -197.148438 72.3125 -195.328125 C 73.03125 -193.503906 73.648438 -191.285156 74.171875 -188.671875 Z M 77.3125 -171.640625 "/></g></g></g><g fill="#0a6ff1" fill-opacity="1"><g transform="translate(292.608025, 338.249978)"><g><path d="M 146.796875 -125.84375 C 146.796875 -130.675781 146.175781 -135.375 144.9375 -139.9375 C 143.695312 -144.507812 141.671875 -148.585938 138.859375 -152.171875 C 136.054688 -155.753906 132.367188 -158.65625 127.796875 -160.875 C 123.234375 -163.09375 117.691406 -164.203125 111.171875 -164.203125 C 99.679688 -164.203125 90.675781 -160.90625 84.15625 -154.3125 C 77.632812 -147.726562 73.328125 -138.238281 71.234375 -125.84375 Z M 70.453125 -90.625 C 72.410156 -73.65625 77.566406 -61.351562 85.921875 -53.71875 C 94.273438 -46.09375 105.039062 -42.28125 118.21875 -42.28125 C 125.257812 -42.28125 131.320312 -43.125 136.40625 -44.8125 C 141.5 -46.507812 146.035156 -48.398438 150.015625 -50.484375 C 153.992188 -52.578125 157.644531 -54.472656 160.96875 -56.171875 C 164.300781 -57.867188 167.796875 -58.71875 171.453125 -58.71875 C 176.273438 -58.71875 179.925781 -56.957031 182.40625 -53.4375 L 200.03125 -31.703125 C 193.757812 -24.523438 187.003906 -18.6875 179.765625 -14.1875 C 172.523438 -9.6875 165.085938 -6.160156 157.453125 -3.609375 C 149.816406 -1.066406 142.179688 0.6875 134.546875 1.65625 C 126.921875 2.632812 119.648438 3.125 112.734375 3.125 C 98.515625 3.125 85.171875 0.8125 72.703125 -3.8125 C 60.242188 -8.445312 49.347656 -15.332031 40.015625 -24.46875 C 30.691406 -33.601562 23.320312 -44.953125 17.90625 -58.515625 C 12.488281 -72.085938 9.78125 -87.878906 9.78125 -105.890625 C 9.78125 -119.453125 12.097656 -132.300781 16.734375 -144.4375 C 21.367188 -156.570312 28.023438 -167.207031 36.703125 -176.34375 C 45.378906 -185.476562 55.878906 -192.71875 68.203125 -198.0625 C 80.535156 -203.414062 94.46875 -206.09375 110 -206.09375 C 123.4375 -206.09375 135.734375 -204.003906 146.890625 -199.828125 C 158.046875 -195.648438 167.632812 -189.582031 175.65625 -181.625 C 183.675781 -173.664062 189.9375 -163.910156 194.4375 -152.359375 C 198.945312 -140.816406 201.203125 -127.738281 201.203125 -113.125 C 201.203125 -108.5625 201.003906 -104.84375 200.609375 -101.96875 C 200.222656 -99.09375 199.503906 -96.804688 198.453125 -95.109375 C 197.410156 -93.421875 196.007812 -92.25 194.25 -91.59375 C 192.488281 -90.945312 190.238281 -90.625 187.5 -90.625 Z M 70.453125 -90.625 "/></g></g></g><g fill="#0a6ff1" fill-opacity="1"><g transform="translate(503.590511, 338.249978)"><g><path d="M 146.796875 -125.84375 C 146.796875 -130.675781 146.175781 -135.375 144.9375 -139.9375 C 143.695312 -144.507812 141.671875 -148.585938 138.859375 -152.171875 C 136.054688 -155.753906 132.367188 -158.65625 127.796875 -160.875 C 123.234375 -163.09375 117.691406 -164.203125 111.171875 -164.203125 C 99.679688 -164.203125 90.675781 -160.90625 84.15625 -154.3125 C 77.632812 -147.726562 73.328125 -138.238281 71.234375 -125.84375 Z M 70.453125 -90.625 C 72.410156 -73.65625 77.566406 -61.351562 85.921875 -53.71875 C 94.273438 -46.09375 105.039062 -42.28125 118.21875 -42.28125 C 125.257812 -42.28125 131.320312 -43.125 136.40625 -44.8125 C 141.5 -46.507812 146.035156 -48.398438 150.015625 -50.484375 C 153.992188 -52.578125 157.644531 -54.472656 160.96875 -56.171875 C 164.300781 -57.867188 167.796875 -58.71875 171.453125 -58.71875 C 176.273438 -58.71875 179.925781 -56.957031 182.40625 -53.4375 L 200.03125 -31.703125 C 193.757812 -24.523438 187.003906 -18.6875 179.765625 -14.1875 C 172.523438 -9.6875 165.085938 -6.160156 157.453125 -3.609375 C 149.816406 -1.066406 142.179688 0.6875 134.546875 1.65625 C 126.921875 2.632812 119.648438 3.125 112.734375 3.125 C 98.515625 3.125 85.171875 0.8125 72.703125 -3.8125 C 60.242188 -8.445312 49.347656 -15.332031 40.015625 -24.46875 C 30.691406 -33.601562 23.320312 -44.953125 17.90625 -58.515625 C 12.488281 -72.085938 9.78125 -87.878906 9.78125 -105.890625 C 9.78125 -119.453125 12.097656 -132.300781 16.734375 -144.4375 C 21.367188 -156.570312 28.023438 -167.207031 36.703125 -176.34375 C 45.378906 -185.476562 55.878906 -192.71875 68.203125 -198.0625 C 80.535156 -203.414062 94.46875 -206.09375 110 -206.09375 C 123.4375 -206.09375 135.734375 -204.003906 146.890625 -199.828125 C 158.046875 -195.648438 167.632812 -189.582031 175.65625 -181.625 C 183.675781 -173.664062 189.9375 -163.910156 194.4375 -152.359375 C 198.945312 -140.816406 201.203125 -127.738281 201.203125 -113.125 C 201.203125 -108.5625 201.003906 -104.84375 200.609375 -101.96875 C 200.222656 -99.09375 199.503906 -96.804688 198.453125 -95.109375 C 197.410156 -93.421875 196.007812 -92.25 194.25 -91.59375 C 192.488281 -90.945312 190.238281 -90.625 187.5 -90.625 Z M 70.453125 -90.625 "/></g></g></g><g fill="#0a6ff1" fill-opacity="1"><g transform="translate(714.572997, 338.249978)"><g><path d="M 143.65625 -148.546875 C 139.09375 -153.640625 134.132812 -157.195312 128.78125 -159.21875 C 123.4375 -161.238281 117.828125 -162.25 111.953125 -162.25 C 106.335938 -162.25 101.179688 -161.140625 96.484375 -158.921875 C 91.785156 -156.703125 87.707031 -153.144531 84.25 -148.25 C 80.800781 -143.363281 78.097656 -137.003906 76.140625 -129.171875 C 74.179688 -121.347656 73.203125 -111.890625 73.203125 -100.796875 C 73.203125 -90.097656 73.984375 -81.09375 75.546875 -73.78125 C 77.109375 -66.476562 79.289062 -60.578125 82.09375 -56.078125 C 84.90625 -51.578125 88.269531 -48.347656 92.1875 -46.390625 C 96.101562 -44.429688 100.472656 -43.453125 105.296875 -43.453125 C 109.734375 -43.453125 113.742188 -43.875 117.328125 -44.71875 C 120.921875 -45.570312 124.21875 -46.78125 127.21875 -48.34375 C 130.21875 -49.90625 133.054688 -51.894531 135.734375 -54.3125 C 138.410156 -56.726562 141.050781 -59.5 143.65625 -62.625 Z M 204.328125 -292.984375 L 204.328125 0 L 166.75 0 C 159.1875 0 154.226562 -3.390625 151.875 -10.171875 L 147.1875 -25.640625 C 143.132812 -21.335938 138.890625 -17.421875 134.453125 -13.890625 C 130.015625 -10.367188 125.21875 -7.335938 120.0625 -4.796875 C 114.914062 -2.253906 109.375 -0.300781 103.4375 1.0625 C 97.5 2.4375 91.070312 3.125 84.15625 3.125 C 73.59375 3.125 63.804688 0.78125 54.796875 -3.90625 C 45.796875 -8.601562 38.03125 -15.390625 31.5 -24.265625 C 24.976562 -33.140625 19.859375 -44.003906 16.140625 -56.859375 C 12.421875 -69.710938 10.5625 -84.359375 10.5625 -100.796875 C 10.5625 -115.929688 12.648438 -129.988281 16.828125 -142.96875 C 21.003906 -155.957031 26.910156 -167.179688 34.546875 -176.640625 C 42.179688 -186.097656 51.347656 -193.5 62.046875 -198.84375 C 72.742188 -204.195312 84.550781 -206.875 97.46875 -206.875 C 108.039062 -206.875 116.910156 -205.375 124.078125 -202.375 C 131.253906 -199.375 137.78125 -195.328125 143.65625 -190.234375 L 143.65625 -292.984375 Z M 204.328125 -292.984375 "/></g></g></g><g fill="#0a6ff1" fill-opacity="1"><g transform="translate(939.45149, 338.249978)"><g><path d="M 114.109375 -206.09375 C 129.503906 -206.09375 143.53125 -203.675781 156.1875 -198.84375 C 168.84375 -194.019531 179.703125 -187.101562 188.765625 -178.09375 C 197.835938 -169.09375 204.882812 -158.164062 209.90625 -145.3125 C 214.925781 -132.46875 217.4375 -118.019531 217.4375 -101.96875 C 217.4375 -85.789062 214.925781 -71.207031 209.90625 -58.21875 C 204.882812 -45.238281 197.835938 -34.210938 188.765625 -25.140625 C 179.703125 -16.078125 168.84375 -9.097656 156.1875 -4.203125 C 143.53125 0.679688 129.503906 3.125 114.109375 3.125 C 98.578125 3.125 84.445312 0.679688 71.71875 -4.203125 C 59 -9.097656 48.039062 -16.078125 38.84375 -25.140625 C 29.644531 -34.210938 22.535156 -45.238281 17.515625 -58.21875 C 12.492188 -71.207031 9.984375 -85.789062 9.984375 -101.96875 C 9.984375 -118.019531 12.492188 -132.46875 17.515625 -145.3125 C 22.535156 -158.164062 29.644531 -169.09375 38.84375 -178.09375 C 48.039062 -187.101562 59 -194.019531 71.71875 -198.84375 C 84.445312 -203.675781 98.578125 -206.09375 114.109375 -206.09375 Z M 114.109375 -41.890625 C 128.066406 -41.890625 138.335938 -46.8125 144.921875 -56.65625 C 151.515625 -66.507812 154.8125 -81.484375 154.8125 -101.578125 C 154.8125 -121.671875 151.515625 -136.609375 144.921875 -146.390625 C 138.335938 -156.179688 128.066406 -161.078125 114.109375 -161.078125 C 99.753906 -161.078125 89.25 -156.179688 82.59375 -146.390625 C 75.9375 -136.609375 72.609375 -121.671875 72.609375 -101.578125 C 72.609375 -81.484375 75.9375 -66.507812 82.59375 -56.65625 C 89.25 -46.8125 99.753906 -41.890625 114.109375 -41.890625 Z M 114.109375 -41.890625 "/></g></g></g><g fill="#0a6ff1" fill-opacity="1"><g transform="translate(1166.874238, 338.249978)"><g><path d="M 20.546875 0 L 20.546875 -202.953125 L 58.125 -202.953125 C 65.695312 -202.953125 70.65625 -199.5625 73 -192.78125 L 76.328125 -181.828125 C 79.722656 -185.347656 83.242188 -188.578125 86.890625 -191.515625 C 90.546875 -194.453125 94.492188 -196.992188 98.734375 -199.140625 C 102.972656 -201.296875 107.539062 -202.992188 112.4375 -204.234375 C 117.332031 -205.472656 122.71875 -206.09375 128.59375 -206.09375 C 140.851562 -206.09375 150.992188 -202.925781 159.015625 -196.59375 C 167.046875 -190.269531 173.148438 -181.820312 177.328125 -171.25 C 180.710938 -177.507812 184.851562 -182.859375 189.75 -187.296875 C 194.644531 -191.734375 199.925781 -195.320312 205.59375 -198.0625 C 211.269531 -200.800781 217.269531 -202.820312 223.59375 -204.125 C 229.925781 -205.4375 236.226562 -206.09375 242.5 -206.09375 C 254.113281 -206.09375 264.421875 -204.363281 273.421875 -200.90625 C 282.421875 -197.445312 289.953125 -192.421875 296.015625 -185.828125 C 302.085938 -179.242188 306.6875 -171.15625 309.8125 -161.5625 C 312.945312 -151.976562 314.515625 -141.117188 314.515625 -128.984375 L 314.515625 0 L 253.84375 0 L 253.84375 -128.984375 C 253.84375 -149.984375 244.84375 -160.484375 226.84375 -160.484375 C 218.613281 -160.484375 211.789062 -157.773438 206.375 -152.359375 C 200.96875 -146.953125 198.265625 -139.160156 198.265625 -128.984375 L 198.265625 0 L 137.59375 0 L 137.59375 -128.984375 C 137.59375 -140.585938 135.304688 -148.738281 130.734375 -153.4375 C 126.171875 -158.132812 119.453125 -160.484375 110.578125 -160.484375 C 105.097656 -160.484375 99.910156 -159.242188 95.015625 -156.765625 C 90.128906 -154.285156 85.53125 -150.960938 81.21875 -146.796875 L 81.21875 0 Z M 20.546875 0 "/></g></g></g></svg>
