<svg xmlns="http://www.w3.org/2000/svg" xmlns:xlink="http://www.w3.org/1999/xlink" width="79" zoomAndPan="magnify" viewBox="0 0 1500 1499.999933" height="79" preserveAspectRatio="xMidYMid meet" version="1.0"><defs><g/><clipPath id="c36f07aed2"><path d="M 0 0 L 1498 0 L 1498 1498 L 0 1498 Z M 0 0 " clip-rule="nonzero"/></clipPath><clipPath id="adc8eecea6"><path d="M 70.5 0 L 1429.5 0 C 1468.4375 0 1500 31.5625 1500 70.5 L 1500 1429.5 C 1500 1468.4375 1468.4375 1500 1429.5 1500 L 70.5 1500 C 31.5625 1500 0 1468.4375 0 1429.5 L 0 70.5 C 0 31.5625 31.5625 0 70.5 0 " clip-rule="nonzero"/></clipPath></defs><g clip-path="url(#c36f07aed2)"><g clip-path="url(#adc8eecea6)"><path fill="#0a6ff1" d="M 0 0 L 1497.65625 0 L 1497.65625 1497.65625 L 0 1497.65625 Z M 0 0 " fill-opacity="1" fill-rule="nonzero"/></g></g><g fill="#ffffff" fill-opacity="1"><g transform="translate(42.004191, 1047.67056)"><g><path d="M 70.578125 0 L 70.578125 -319.5625 L 44.21875 -325 C 35.164062 -327.0625 27.859375 -330.289062 22.296875 -334.6875 C 16.742188 -339.082031 13.96875 -345.546875 13.96875 -354.078125 L 13.96875 -401.390625 L 70.578125 -401.390625 L 70.578125 -424.28125 C 70.578125 -447.289062 74.257812 -468.101562 81.625 -486.71875 C 89 -505.332031 99.601562 -521.226562 113.4375 -534.40625 C 127.269531 -547.59375 144.140625 -557.804688 164.046875 -565.046875 C 183.953125 -572.285156 206.578125 -575.90625 231.921875 -575.90625 C 241.742188 -575.90625 250.789062 -575.320312 259.0625 -574.15625 C 267.332031 -573 275.992188 -571.128906 285.046875 -568.546875 L 282.71875 -509.984375 C 282.457031 -505.847656 281.421875 -502.421875 279.609375 -499.703125 C 277.804688 -496.992188 275.414062 -494.796875 272.4375 -493.109375 C 269.46875 -491.429688 266.300781 -490.203125 262.9375 -489.421875 C 259.582031 -488.648438 256.222656 -488.265625 252.859375 -488.265625 C 242.253906 -488.265625 232.816406 -487.226562 224.546875 -485.15625 C 216.273438 -483.09375 209.359375 -479.410156 203.796875 -474.109375 C 198.242188 -468.804688 194.039062 -461.820312 191.1875 -453.15625 C 188.34375 -444.5 186.921875 -433.578125 186.921875 -420.390625 L 186.921875 -401.390625 L 281.171875 -401.390625 L 281.171875 -319.171875 L 190.8125 -319.171875 L 190.8125 0 Z M 70.578125 0 "/></g></g></g><g fill="#ffffff" fill-opacity="1"><g transform="translate(325.888066, 1047.67056)"><g><path d="M 153.1875 -340.125 C 165.59375 -361.832031 179.875 -378.890625 196.03125 -391.296875 C 212.195312 -403.710938 230.753906 -409.921875 251.703125 -409.921875 C 269.796875 -409.921875 284.53125 -405.65625 295.90625 -397.125 L 288.15625 -308.703125 C 286.863281 -303.015625 284.726562 -299.132812 281.75 -297.0625 C 278.78125 -295 274.707031 -293.96875 269.53125 -293.96875 C 267.46875 -293.96875 264.753906 -294.097656 261.390625 -294.359375 C 258.023438 -294.617188 254.53125 -294.941406 250.90625 -295.328125 C 247.289062 -295.710938 243.609375 -296.097656 239.859375 -296.484375 C 236.117188 -296.867188 232.695312 -297.0625 229.59375 -297.0625 C 212.007812 -297.0625 197.976562 -292.40625 187.5 -283.09375 C 177.03125 -273.789062 168.179688 -260.867188 160.953125 -244.328125 L 160.953125 0 L 40.71875 0 L 40.71875 -402.171875 L 112.078125 -402.171875 C 118.023438 -402.171875 123 -401.648438 127 -400.609375 C 131.007812 -399.578125 134.375 -397.960938 137.09375 -395.765625 C 139.8125 -393.566406 141.878906 -390.65625 143.296875 -387.03125 C 144.722656 -383.414062 145.953125 -379.023438 146.984375 -373.859375 Z M 153.1875 -340.125 "/></g></g></g><g fill="#ffffff" fill-opacity="1"><g transform="translate(621.79435, 1047.67056)"><g><path d="M 290.859375 -249.375 C 290.859375 -258.9375 289.628906 -268.238281 287.171875 -277.28125 C 284.722656 -286.332031 280.71875 -294.410156 275.15625 -301.515625 C 269.601562 -308.628906 262.300781 -314.382812 253.25 -318.78125 C 244.195312 -323.175781 233.207031 -325.375 220.28125 -325.375 C 197.53125 -325.375 179.691406 -318.847656 166.765625 -305.796875 C 153.835938 -292.742188 145.304688 -273.9375 141.171875 -249.375 Z M 139.609375 -179.5625 C 143.492188 -145.945312 153.707031 -121.578125 170.25 -106.453125 C 186.800781 -91.328125 208.132812 -83.765625 234.25 -83.765625 C 248.207031 -83.765625 260.226562 -85.445312 270.3125 -88.8125 C 280.394531 -92.175781 289.378906 -95.925781 297.265625 -100.0625 C 305.148438 -104.195312 312.390625 -107.941406 318.984375 -111.296875 C 325.578125 -114.660156 332.492188 -116.34375 339.734375 -116.34375 C 349.296875 -116.34375 356.535156 -112.851562 361.453125 -105.875 L 396.359375 -62.828125 C 383.941406 -48.609375 370.554688 -37.035156 356.203125 -28.109375 C 341.859375 -19.191406 327.125 -12.210938 312 -7.171875 C 296.875 -2.128906 281.75 1.359375 266.625 3.296875 C 251.5 5.234375 237.085938 6.203125 223.390625 6.203125 C 195.203125 6.203125 168.757812 1.613281 144.0625 -7.5625 C 119.375 -16.738281 97.785156 -30.375 79.296875 -48.46875 C 60.816406 -66.570312 46.210938 -89.066406 35.484375 -115.953125 C 24.753906 -142.847656 19.390625 -174.132812 19.390625 -209.8125 C 19.390625 -236.695312 23.976562 -262.160156 33.15625 -286.203125 C 42.332031 -310.253906 55.515625 -331.328125 72.703125 -349.421875 C 89.898438 -367.523438 110.710938 -381.875 135.140625 -392.46875 C 159.578125 -403.070312 187.179688 -408.375 217.953125 -408.375 C 244.585938 -408.375 268.957031 -404.234375 291.0625 -395.953125 C 313.164062 -387.679688 332.164062 -375.660156 348.0625 -359.890625 C 363.96875 -344.117188 376.378906 -324.789062 385.296875 -301.90625 C 394.210938 -279.03125 398.671875 -253.113281 398.671875 -224.15625 C 398.671875 -215.113281 398.285156 -207.742188 397.515625 -202.046875 C 396.742188 -196.359375 395.320312 -191.832031 393.25 -188.46875 C 391.175781 -185.113281 388.394531 -182.789062 384.90625 -181.5 C 381.414062 -180.207031 376.957031 -179.5625 371.53125 -179.5625 Z M 139.609375 -179.5625 "/></g></g></g><g fill="#ffffff" fill-opacity="1"><g transform="translate(1039.863838, 1047.67056)"><g><path d="M 290.859375 -249.375 C 290.859375 -258.9375 289.628906 -268.238281 287.171875 -277.28125 C 284.722656 -286.332031 280.71875 -294.410156 275.15625 -301.515625 C 269.601562 -308.628906 262.300781 -314.382812 253.25 -318.78125 C 244.195312 -323.175781 233.207031 -325.375 220.28125 -325.375 C 197.53125 -325.375 179.691406 -318.847656 166.765625 -305.796875 C 153.835938 -292.742188 145.304688 -273.9375 141.171875 -249.375 Z M 139.609375 -179.5625 C 143.492188 -145.945312 153.707031 -121.578125 170.25 -106.453125 C 186.800781 -91.328125 208.132812 -83.765625 234.25 -83.765625 C 248.207031 -83.765625 260.226562 -85.445312 270.3125 -88.8125 C 280.394531 -92.175781 289.378906 -95.925781 297.265625 -100.0625 C 305.148438 -104.195312 312.390625 -107.941406 318.984375 -111.296875 C 325.578125 -114.660156 332.492188 -116.34375 339.734375 -116.34375 C 349.296875 -116.34375 356.535156 -112.851562 361.453125 -105.875 L 396.359375 -62.828125 C 383.941406 -48.609375 370.554688 -37.035156 356.203125 -28.109375 C 341.859375 -19.191406 327.125 -12.210938 312 -7.171875 C 296.875 -2.128906 281.75 1.359375 266.625 3.296875 C 251.5 5.234375 237.085938 6.203125 223.390625 6.203125 C 195.203125 6.203125 168.757812 1.613281 144.0625 -7.5625 C 119.375 -16.738281 97.785156 -30.375 79.296875 -48.46875 C 60.816406 -66.570312 46.210938 -89.066406 35.484375 -115.953125 C 24.753906 -142.847656 19.390625 -174.132812 19.390625 -209.8125 C 19.390625 -236.695312 23.976562 -262.160156 33.15625 -286.203125 C 42.332031 -310.253906 55.515625 -331.328125 72.703125 -349.421875 C 89.898438 -367.523438 110.710938 -381.875 135.140625 -392.46875 C 159.578125 -403.070312 187.179688 -408.375 217.953125 -408.375 C 244.585938 -408.375 268.957031 -404.234375 291.0625 -395.953125 C 313.164062 -387.679688 332.164062 -375.660156 348.0625 -359.890625 C 363.96875 -344.117188 376.378906 -324.789062 385.296875 -301.90625 C 394.210938 -279.03125 398.671875 -253.113281 398.671875 -224.15625 C 398.671875 -215.113281 398.285156 -207.742188 397.515625 -202.046875 C 396.742188 -196.359375 395.320312 -191.832031 393.25 -188.46875 C 391.175781 -185.113281 388.394531 -182.789062 384.90625 -181.5 C 381.414062 -180.207031 376.957031 -179.5625 371.53125 -179.5625 Z M 139.609375 -179.5625 "/></g></g></g></svg>
